# xmcd
#
# Track frame offsets: 
#        150
#        11785
#        33895
#        52615
#        70240
#        86410
#        103982
#        119775
#        138420
#        161075
#        172432
#        186227
#
# Disc length: 2756 seconds
#
# Revision: 3
# Processed by: cddbd v1.5.2PL0 Copyright (c) Steve Scherf et al.
# Submitted via: ExactAudioCopy v0.95b3
#
DISCID=ab0ac20c
DTITLE=Johnnie Johnson - Blue Hand Johnnie [CD released 1993)
DYEAR=1988
DGENRE=Blues
TTITLE0=Johnnie's Boogie
TTITLE1=See See Rider
TTITLE2=O.J. Blues
TTITLE3=Black Nights
TTITLE4=Talkin' Woman
TTITLE5=Honky Tonk Part I
TTITLE6=Slow Train
TTITLE7=Baby What You Want Me To Do
TTITLE8=Way South
TTITLE9=Johnnie B. Goode
TTITLE10=Back In The U.S.A. (previously unreleased)
TTITLE11=Son's Dream (previously unreleased)
EXTD=
EXTT0=
EXTT1=
EXTT2=
EXTT3=
EXTT4=
EXTT5=
EXTT6=
EXTT7=
EXTT8=
EXTT9=
EXTT10=
EXTT11=
PLAYORDER=
